<mxfile host="app.diagrams.net" modified="2023-08-01T13:16:21.506Z" agent="Mozilla/5.0 (Windows NT 10.0; Win64; x64) AppleWebKit/537.36 (KHTML, like Gecko) Chrome/115.0.0.0 Safari/537.36 Edg/115.0.1901.183" version="21.6.6" etag="5mXZFC0ib_K4Lqdxwx7c" type="github">
  <diagram name="Seite-1" id="KvqoOEDOwAeF_wcipufV">
    <mxGraphModel>
      <root>
        <mxCell id="0" />
        <mxCell id="1" parent="0" />
      </root>
    </mxGraphModel>
  </diagram>
</mxfile>
